<?xml version="1.0" encoding="UTF-8"?>
<svg xmlns="http://www.w3.org/2000/svg" xmlns:xlink="http://www.w3.org/1999/xlink" width="75px" height="75px" viewBox="0 0 75 75" version="1.1">
<defs>
<clipPath id="clip1">
  <path d="M 8.601562 23.398438 L 63.199219 23.398438 L 63.199219 64.601562 L 8.601562 64.601562 Z M 8.601562 23.398438 "/>
</clipPath>
<clipPath id="clip2">
  <path d="M 22.367188 14.589844 L 71.679688 32.609375 L 57.160156 72.339844 L 7.847656 54.320312 Z M 22.367188 14.589844 "/>
</clipPath>
<clipPath id="clip3">
  <path d="M 22.367188 14.589844 L 71.679688 32.609375 L 57.160156 72.339844 L 7.847656 54.320312 Z M 22.367188 14.589844 "/>
</clipPath>
<clipPath id="clip4">
  <path d="M 22.367188 14.589844 L 71.679688 32.609375 L 57.160156 72.339844 L 7.847656 54.320312 Z M 22.367188 14.589844 "/>
</clipPath>
</defs>
<g id="surface1">
<rect x="0" y="0" width="75" height="75" style="fill:rgb(10.196078%,10.196078%,10.196078%);fill-opacity:1;stroke:none;"/>
<g clip-path="url(#clip1)" clip-rule="nonzero">
<g clip-path="url(#clip2)" clip-rule="nonzero">
<g clip-path="url(#clip3)" clip-rule="nonzero">
<g clip-path="url(#clip4)" clip-rule="nonzero">
<path style=" stroke:none;fill-rule:evenodd;fill:rgb(100%,100%,100%);fill-opacity:1;" d="M 24.09375 60.199219 C 18.261719 58.066406 13.035156 55.378906 8.714844 52.433594 C 11.808594 54.125 15.214844 55.671875 18.855469 57.003906 C 37.109375 63.671875 54.363281 62.355469 57.394531 54.058594 C 59.457031 48.414062 54.40625 40.996094 45.214844 34.722656 C 57.636719 41.511719 65.058594 50.609375 62.632812 57.253906 C 59.601562 65.546875 42.347656 66.867188 24.09375 60.199219 Z M 36.316406 28.648438 L 36.363281 28.527344 C 43.648438 31.1875 44.609375 30.203125 47.027344 23.578125 L 47.152344 23.621094 C 44.730469 30.246094 44.832031 31.621094 52.117188 34.285156 L 52.074219 34.40625 C 44.785156 31.742188 43.824219 32.726562 41.40625 39.347656 L 41.28125 39.304688 C 43.703125 32.679688 43.605469 31.3125 36.316406 28.648438 "/>
</g>
</g>
</g>
</g>
<path style=" stroke:none;fill-rule:nonzero;fill:rgb(100%,100%,100%);fill-opacity:1;" d="M 17.679688 52.050781 L 17.28125 52.050781 L 17.28125 49.667969 L 17.679688 49.667969 Z M 17.679688 52.050781 "/>
<path style=" stroke:none;fill-rule:nonzero;fill:rgb(100%,100%,100%);fill-opacity:1;" d="M 22.179688 52.050781 L 21.8125 52.050781 L 21.808594 50.273438 L 21.054688 51.804688 L 20.792969 51.804688 L 20.042969 50.273438 L 20.042969 52.050781 L 19.664062 52.050781 L 19.664062 49.667969 L 20.140625 49.667969 L 20.929688 51.25 L 21.710938 49.667969 L 22.179688 49.667969 Z M 22.179688 52.050781 "/>
<path style=" stroke:none;fill-rule:nonzero;fill:rgb(100%,100%,100%);fill-opacity:1;" d="M 25.707031 51.511719 L 24.507812 51.511719 L 24.277344 52.050781 L 23.859375 52.050781 L 24.910156 49.667969 L 25.324219 49.667969 L 26.363281 52.050781 L 25.933594 52.050781 Z M 25.554688 51.15625 L 25.105469 50.097656 L 24.65625 51.15625 Z M 25.554688 51.15625 "/>
<path style=" stroke:none;fill-rule:nonzero;fill:rgb(100%,100%,100%);fill-opacity:1;" d="M 29.664062 50.882812 L 30.015625 50.882812 L 30.015625 51.757812 C 29.894531 51.851562 29.75 51.925781 29.585938 51.980469 C 29.417969 52.039062 29.253906 52.066406 29.089844 52.066406 C 28.742188 52.066406 28.445312 51.949219 28.203125 51.71875 C 27.960938 51.484375 27.839844 51.199219 27.839844 50.859375 C 27.839844 50.519531 27.960938 50.234375 28.207031 50.007812 C 28.453125 49.773438 28.753906 49.660156 29.117188 49.660156 C 29.285156 49.660156 29.449219 49.691406 29.609375 49.75 C 29.773438 49.8125 29.914062 49.890625 30.03125 49.992188 L 29.804688 50.289062 C 29.605469 50.105469 29.378906 50.015625 29.117188 50.015625 C 28.875 50.015625 28.667969 50.097656 28.5 50.261719 C 28.332031 50.425781 28.25 50.625 28.25 50.859375 C 28.25 51.097656 28.335938 51.296875 28.503906 51.460938 C 28.671875 51.625 28.875 51.707031 29.117188 51.707031 C 29.300781 51.707031 29.484375 51.652344 29.664062 51.542969 Z M 29.664062 50.882812 "/>
<path style=" stroke:none;fill-rule:nonzero;fill:rgb(100%,100%,100%);fill-opacity:1;" d="M 32.34375 52.050781 L 31.941406 52.050781 L 31.941406 49.667969 L 32.34375 49.667969 Z M 32.34375 52.050781 "/>
<path style=" stroke:none;fill-rule:nonzero;fill:rgb(100%,100%,100%);fill-opacity:1;" d="M 36.394531 52.050781 L 35.996094 52.050781 L 34.730469 50.34375 L 34.730469 52.050781 L 34.328125 52.050781 L 34.328125 49.667969 L 34.722656 49.667969 L 35.996094 51.382812 L 35.996094 49.667969 L 36.394531 49.667969 Z M 36.394531 52.050781 "/>
<path style=" stroke:none;fill-rule:nonzero;fill:rgb(100%,100%,100%);fill-opacity:1;" d="M 39.917969 51.511719 L 38.71875 51.511719 L 38.488281 52.050781 L 38.070312 52.050781 L 39.121094 49.667969 L 39.535156 49.667969 L 40.574219 52.050781 L 40.144531 52.050781 Z M 39.765625 51.15625 L 39.316406 50.097656 L 38.867188 51.15625 Z M 39.765625 51.15625 "/>
<path style=" stroke:none;fill-rule:nonzero;fill:rgb(100%,100%,100%);fill-opacity:1;" d="M 43.875 50.03125 L 43.121094 50.03125 L 43.121094 52.050781 L 42.71875 52.050781 L 42.71875 50.03125 L 41.96875 50.03125 L 41.96875 49.667969 L 43.875 49.667969 Z M 43.875 50.03125 "/>
<path style=" stroke:none;fill-rule:nonzero;fill:rgb(100%,100%,100%);fill-opacity:1;" d="M 45.976562 52.050781 L 45.578125 52.050781 L 45.578125 49.667969 L 45.976562 49.667969 Z M 45.976562 52.050781 "/>
<path style=" stroke:none;fill-rule:nonzero;fill:rgb(100%,100%,100%);fill-opacity:1;" d="M 49.023438 52.050781 L 48.609375 52.050781 L 47.660156 49.667969 L 48.089844 49.667969 L 48.824219 51.601562 L 49.570312 49.667969 L 49.984375 49.667969 Z M 49.023438 52.050781 "/>
<path style=" stroke:none;fill-rule:nonzero;fill:rgb(100%,100%,100%);fill-opacity:1;" d="M 53.367188 50.03125 L 52.066406 50.03125 L 52.066406 50.671875 L 53.234375 50.671875 L 53.234375 51.035156 L 52.066406 51.035156 L 52.066406 51.691406 L 53.410156 51.691406 L 53.410156 52.050781 L 51.667969 52.050781 L 51.667969 49.667969 L 53.367188 49.667969 Z M 53.367188 50.03125 "/>
</g>
</svg>
